<svg width="1000" height="320" viewBox="0 0 1000 320" fill="none" xmlns="http://www.w3.org/2000/svg">
<rect width="1000" height="320" fill="white"/>
<path d="M288 63.48L217.92 237H188.76L118.68 63.48H144.6C147.4 63.48 149.68 64.16 151.44 65.52C153.2 66.88 154.52 68.64 155.4 70.8L196.32 176.64C197.68 180.08 198.96 183.88 200.16 188.04C201.44 192.12 202.64 196.4 203.76 200.88C204.72 196.4 205.76 192.12 206.88 188.04C208 183.88 209.24 180.08 210.6 176.64L251.28 70.8C251.92 68.96 253.16 67.28 255 65.76C256.92 64.24 259.24 63.48 261.96 63.48H288ZM338.361 237H305.961V63.48H338.361V237ZM523.491 63.48V237H506.931C504.371 237 502.211 236.6 500.451 235.8C498.771 234.92 497.131 233.48 495.531 231.48L404.931 115.8C405.411 121.08 405.651 125.96 405.651 130.44V237H377.211V63.48H394.131C395.491 63.48 396.651 63.56 397.611 63.72C398.651 63.8 399.531 64.04 400.251 64.44C401.051 64.76 401.811 65.28 402.531 66C403.251 66.64 404.051 67.52 404.931 68.64L495.891 184.8C495.651 182 495.451 179.24 495.291 176.52C495.131 173.8 495.051 171.28 495.051 168.96V63.48H523.491ZM636.653 169.8V237H604.492V169.8L541.252 63.48H569.693C572.493 63.48 574.693 64.16 576.293 65.52C577.973 66.88 579.373 68.6 580.493 70.68L612.173 128.64C614.013 132.08 615.613 135.32 616.973 138.36C618.413 141.4 619.693 144.44 620.813 147.48C621.853 144.44 623.053 141.4 624.413 138.36C625.773 135.32 627.333 132.08 629.093 128.64L660.653 70.68C661.533 68.92 662.853 67.28 664.613 65.76C666.373 64.24 668.613 63.48 671.333 63.48H699.893L636.653 169.8ZM819.398 210.36V237H717.758V63.48H750.038V210.36H819.398Z" fill="#C05746"/>
</svg>
